# Blender v2.79 (sub 0) OBJ File: ''
# www.blender.org
mtllib _L1l.mtl
o MeshBody3
v -0.004999 0.002537 0.247238
v 0.005001 0.002537 0.247238
v -0.004999 0.000596 0.247499
v 0.005001 0.000596 0.247499
v -0.004999 -0.001346 0.247248
v 0.005001 -0.001346 0.247248
v -0.004999 -0.003156 0.246503
v 0.005001 -0.003156 0.246503
v -0.004999 -0.004712 0.245316
v 0.005001 -0.004712 0.245316
v -0.004999 -0.005908 0.243765
v 0.005001 -0.005908 0.243765
v -0.004999 -0.006661 0.241958
v 0.005001 -0.006661 0.241958
v -0.004999 -0.006922 0.240017
v 0.005001 -0.006922 0.240017
v -0.004999 -0.006670 0.238076
v 0.005001 -0.006670 0.238076
v -0.004999 -0.005926 0.236265
v 0.005001 -0.005926 0.236265
v -0.004999 -0.004738 0.234709
v 0.005001 -0.004738 0.234709
v -0.004999 -0.003187 0.233513
v 0.005001 -0.003187 0.233513
v -0.004999 -0.001381 0.232760
v 0.005001 -0.001381 0.232760
v -0.004999 0.000560 0.232499
v 0.005001 0.000560 0.232499
v -0.004999 0.002502 0.232750
v 0.005001 0.002502 0.232750
v -0.004999 0.004313 0.233495
v 0.005001 0.004313 0.233495
v -0.004999 0.005869 0.234683
v 0.005001 0.005869 0.234683
v -0.004999 0.007064 0.236234
v 0.005001 0.007064 0.236234
v -0.004999 0.007818 0.238041
v 0.005001 0.007818 0.238041
v -0.004999 0.008078 0.239981
v 0.005001 0.008078 0.239981
v -0.004999 0.007827 0.241923
v 0.005001 0.007827 0.241923
v -0.004999 0.007082 0.243734
v 0.005001 0.007082 0.243734
v -0.004999 0.005895 0.245290
v 0.005001 0.005895 0.245290
v -0.004999 0.004344 0.246485
v 0.005001 0.004344 0.246485
v -0.004999 0.001380 -0.232760
v 0.005001 0.001380 -0.232760
v -0.004999 -0.000560 -0.232499
v 0.005001 -0.000560 -0.232499
v -0.004999 -0.002503 -0.232750
v 0.005001 -0.002503 -0.232750
v -0.004999 -0.004313 -0.233495
v 0.005001 -0.004313 -0.233495
v -0.004999 -0.005869 -0.234683
v 0.005001 -0.005869 -0.234683
v -0.004999 -0.007064 -0.236234
v 0.005001 -0.007064 -0.236234
v -0.004999 -0.007818 -0.238041
v 0.005001 -0.007818 -0.238041
v -0.004999 -0.008078 -0.239981
v 0.005001 -0.008078 -0.239981
v -0.004999 -0.007828 -0.241924
v 0.005001 -0.007828 -0.241924
v -0.004999 -0.007082 -0.243734
v 0.005001 -0.007082 -0.243734
v -0.004999 -0.005895 -0.245290
v 0.005001 -0.005895 -0.245290
v -0.004999 -0.004344 -0.246485
v 0.005001 -0.004344 -0.246485
v -0.004999 -0.002537 -0.247239
v 0.005001 -0.002537 -0.247239
v -0.004999 -0.000596 -0.247499
v 0.005001 -0.000596 -0.247499
v -0.004999 0.001346 -0.247249
v 0.005001 0.001346 -0.247249
v -0.004999 0.003156 -0.246503
v 0.005001 0.003156 -0.246503
v -0.004999 0.004712 -0.245316
v 0.005001 0.004712 -0.245316
v -0.004999 0.005908 -0.243765
v 0.005001 0.005908 -0.243765
v -0.004999 0.006661 -0.241958
v 0.005001 0.006661 -0.241958
v -0.004999 0.006922 -0.240017
v 0.005001 0.006922 -0.240017
v -0.004999 0.006671 -0.238075
v 0.005001 0.006671 -0.238075
v -0.004999 0.005926 -0.236265
v 0.005001 0.005926 -0.236265
v -0.004999 0.004738 -0.234709
v 0.005001 0.004738 -0.234709
v -0.004999 0.003187 -0.233513
v 0.005001 0.003187 -0.233513
v 0.005001 0.015578 0.239963
v 0.005001 0.014422 -0.240035
v -0.004999 0.015578 0.239963
v -0.004999 0.014422 -0.240035
v -0.004999 -0.014422 0.240035
v 0.005001 -0.014422 0.240035
v -0.004999 -0.013901 0.243916
v 0.005001 -0.013901 0.243916
v -0.004999 -0.012394 0.247530
v 0.005001 -0.012394 0.247530
v -0.004999 -0.010003 0.250631
v 0.005001 -0.010003 0.250631
v -0.004999 -0.006891 0.253007
v 0.005001 -0.006891 0.253007
v -0.004999 -0.003269 0.254498
v 0.005001 -0.003269 0.254498
v -0.004999 0.000614 0.254999
v 0.005001 0.000614 0.254999
v -0.004999 0.004495 0.254479
v 0.005001 0.004495 0.254479
v -0.004999 0.008109 0.252971
v 0.005001 0.008109 0.252971
v -0.004999 0.011210 0.250581
v 0.005001 0.011210 0.250581
v -0.004999 0.013586 0.247468
v 0.005001 0.013586 0.247468
v -0.004999 0.015076 0.243846
v 0.005001 0.015076 0.243846
v 0.005001 -0.015578 -0.239963
v -0.004999 -0.015578 -0.239963
v -0.004999 0.013901 -0.243916
v 0.005001 0.013901 -0.243916
v -0.004999 0.012394 -0.247531
v 0.005001 0.012394 -0.247531
v -0.004999 0.010003 -0.250632
v 0.005001 0.010003 -0.250632
v -0.004999 0.006890 -0.253007
v 0.005001 0.006890 -0.253007
v -0.004999 0.003269 -0.254498
v 0.005001 0.003269 -0.254498
v -0.004999 -0.000614 -0.254999
v 0.005001 -0.000614 -0.254999
v -0.004999 -0.004495 -0.254479
v 0.005001 -0.004495 -0.254479
v -0.004999 -0.008110 -0.252971
v 0.005001 -0.008110 -0.252971
v -0.004999 -0.011211 -0.250581
v 0.005001 -0.011211 -0.250581
v -0.004999 -0.013586 -0.247468
v 0.005001 -0.013586 -0.247468
v -0.004999 -0.015077 -0.243846
v 0.005001 -0.015077 -0.243846
vn 0.0000 -0.1331 -0.9911
vn 0.0000 0.1281 -0.9918
vn 0.0000 0.3807 -0.9247
vn 0.0000 0.6067 -0.7949
vn 0.0000 0.7920 -0.6106
vn 0.0000 0.9230 -0.3848
vn 0.0000 0.9911 -0.1332
vn 0.0000 0.9917 0.1285
vn 0.0000 0.9249 0.3802
vn 0.0000 0.7949 0.6067
vn 0.0000 0.6106 0.7920
vn 0.0000 0.3848 0.9230
vn 0.0000 0.1332 0.9911
vn 0.0000 -0.1281 0.9918
vn 0.0000 -0.3807 0.9247
vn 0.0000 -0.6067 0.7949
vn 0.0000 -0.7920 0.6105
vn 0.0000 -0.9229 0.3850
vn 0.0000 -0.9911 0.1328
vn 0.0000 -0.9918 -0.1281
vn 0.0000 -0.9247 -0.3807
vn 0.0000 -0.7949 -0.6067
vn 0.0000 -0.6106 -0.7920
vn 0.0000 -0.3848 -0.9230
vn 0.0000 -0.1332 -0.9911
vn 0.0000 0.9918 0.1280
vn 0.0000 0.9247 0.3807
vn 0.0000 -0.7920 0.6106
vn 0.0000 -0.9230 0.3848
vn 0.0000 -0.9911 0.1332
vn 0.0000 1.0000 -0.0024
vn 0.0000 -0.9911 0.1330
vn 0.0000 -0.9230 0.3849
vn 0.0000 -0.3805 0.9248
vn 0.0000 0.1330 0.9911
vn 0.0000 0.3849 0.9230
vn 0.0000 0.6105 0.7920
vn 0.0000 0.9248 0.3805
vn 0.0000 0.9918 0.1281
vn 0.0000 -1.0000 0.0024
vn 0.0000 0.9911 -0.1330
vn 0.0000 0.9230 -0.3849
vn 0.0000 0.7920 -0.6105
vn 0.0000 0.3805 -0.9248
vn 0.0000 -0.1330 -0.9911
vn 0.0000 -0.3849 -0.9230
vn 0.0000 -0.6105 -0.7920
vn 0.0000 -0.9248 -0.3805
vn -1.0000 -0.0000 0.0000
vn 1.0000 0.0000 0.0000
usemtl Steel_-_Satin
s off
f 1//1 2//1 3//1
f 3//1 2//1 4//1
f 3//2 4//2 5//2
f 5//2 4//2 6//2
f 5//3 6//3 7//3
f 7//3 6//3 8//3
f 7//4 8//4 9//4
f 9//4 8//4 10//4
f 9//5 10//5 11//5
f 11//5 10//5 12//5
f 11//6 12//6 13//6
f 13//6 12//6 14//6
f 13//7 14//7 15//7
f 15//7 14//7 16//7
f 15//8 16//8 17//8
f 17//8 16//8 18//8
f 17//9 18//9 19//9
f 19//9 18//9 20//9
f 19//10 20//10 21//10
f 21//10 20//10 22//10
f 21//11 22//11 23//11
f 23//11 22//11 24//11
f 23//12 24//12 25//12
f 25//12 24//12 26//12
f 25//13 26//13 27//13
f 27//13 26//13 28//13
f 27//14 28//14 29//14
f 29//14 28//14 30//14
f 29//15 30//15 31//15
f 31//15 30//15 32//15
f 31//16 32//16 33//16
f 33//16 32//16 34//16
f 33//17 34//17 35//17
f 35//17 34//17 36//17
f 35//18 36//18 37//18
f 37//18 36//18 38//18
f 37//19 38//19 39//19
f 39//19 38//19 40//19
f 39//20 40//20 41//20
f 41//20 40//20 42//20
f 41//21 42//21 43//21
f 43//21 42//21 44//21
f 43//22 44//22 45//22
f 45//22 44//22 46//22
f 45//23 46//23 47//23
f 47//23 46//23 48//23
f 47//24 48//24 1//24
f 1//24 48//24 2//24
f 49//25 50//25 51//25
f 51//25 50//25 52//25
f 51//2 52//2 53//2
f 53//2 52//2 54//2
f 53//3 54//3 55//3
f 55//3 54//3 56//3
f 55//4 56//4 57//4
f 57//4 56//4 58//4
f 57//5 58//5 59//5
f 59//5 58//5 60//5
f 59//6 60//6 61//6
f 61//6 60//6 62//6
f 61//7 62//7 63//7
f 63//7 62//7 64//7
f 63//26 64//26 65//26
f 65//26 64//26 66//26
f 65//27 66//27 67//27
f 67//27 66//27 68//27
f 67//10 68//10 69//10
f 69//10 68//10 70//10
f 69//11 70//11 71//11
f 71//11 70//11 72//11
f 71//12 72//12 73//12
f 73//12 72//12 74//12
f 73//13 74//13 75//13
f 75//13 74//13 76//13
f 75//14 76//14 77//14
f 77//14 76//14 78//14
f 77//15 78//15 79//15
f 79//15 78//15 80//15
f 79//16 80//16 81//16
f 81//16 80//16 82//16
f 81//28 82//28 83//28
f 83//28 82//28 84//28
f 83//29 84//29 85//29
f 85//29 84//29 86//29
f 85//30 86//30 87//30
f 87//30 86//30 88//30
f 87//20 88//20 89//20
f 89//20 88//20 90//20
f 89//21 90//21 91//21
f 91//21 90//21 92//21
f 91//22 92//22 93//22
f 93//22 92//22 94//22
f 93//23 94//23 95//23
f 95//23 94//23 96//23
f 95//24 96//24 49//24
f 49//24 96//24 50//24
f 97//31 98//31 99//31
f 99//31 98//31 100//31
f 101//32 102//32 103//32
f 103//32 102//32 104//32
f 103//33 104//33 105//33
f 105//33 104//33 106//33
f 105//17 106//17 107//17
f 107//17 106//17 108//17
f 107//16 108//16 109//16
f 109//16 108//16 110//16
f 109//34 110//34 111//34
f 111//34 110//34 112//34
f 111//14 112//14 113//14
f 113//14 112//14 114//14
f 113//35 114//35 115//35
f 115//35 114//35 116//35
f 115//36 116//36 117//36
f 117//36 116//36 118//36
f 117//37 118//37 119//37
f 119//37 118//37 120//37
f 119//10 120//10 121//10
f 121//10 120//10 122//10
f 121//38 122//38 123//38
f 123//38 122//38 124//38
f 123//39 124//39 99//39
f 99//39 124//39 97//39
f 125//40 102//40 126//40
f 126//40 102//40 101//40
f 100//41 98//41 127//41
f 127//41 98//41 128//41
f 127//42 128//42 129//42
f 129//42 128//42 130//42
f 129//43 130//43 131//43
f 131//43 130//43 132//43
f 131//4 132//4 133//4
f 133//4 132//4 134//4
f 133//44 134//44 135//44
f 135//44 134//44 136//44
f 135//2 136//2 137//2
f 137//2 136//2 138//2
f 137//45 138//45 139//45
f 139//45 138//45 140//45
f 139//46 140//46 141//46
f 141//46 140//46 142//46
f 141//47 142//47 143//47
f 143//47 142//47 144//47
f 143//22 144//22 145//22
f 145//22 144//22 146//22
f 145//48 146//48 147//48
f 147//48 146//48 148//48
f 147//20 148//20 126//20
f 126//20 148//20 125//20
f 53//49 25//49 51//49
f 51//49 25//49 27//49
f 51//49 27//49 49//49
f 49//49 27//49 29//49
f 49//49 29//49 95//49
f 95//49 29//49 31//49
f 95//49 31//49 93//49
f 93//49 31//49 33//49
f 93//49 33//49 91//49
f 91//49 33//49 35//49
f 91//49 35//49 89//49
f 89//49 35//49 37//49
f 89//49 37//49 100//49
f 100//49 37//49 99//49
f 99//49 37//49 121//49
f 99//49 121//49 123//49
f 25//49 53//49 23//49
f 23//49 53//49 55//49
f 23//49 55//49 21//49
f 21//49 55//49 57//49
f 21//49 57//49 19//49
f 19//49 57//49 59//49
f 19//49 59//49 17//49
f 17//49 59//49 61//49
f 17//49 61//49 101//49
f 101//49 61//49 126//49
f 126//49 61//49 145//49
f 126//49 145//49 147//49
f 145//49 61//49 143//49
f 143//49 61//49 63//49
f 143//49 63//49 141//49
f 141//49 63//49 65//49
f 141//49 65//49 67//49
f 67//49 69//49 141//49
f 141//49 69//49 139//49
f 139//49 69//49 71//49
f 139//49 71//49 73//49
f 139//49 73//49 137//49
f 137//49 73//49 75//49
f 137//49 75//49 77//49
f 137//49 77//49 135//49
f 135//49 77//49 79//49
f 135//49 79//49 81//49
f 135//49 81//49 133//49
f 133//49 81//49 83//49
f 133//49 83//49 85//49
f 85//49 87//49 133//49
f 133//49 87//49 131//49
f 131//49 87//49 89//49
f 131//49 89//49 129//49
f 129//49 89//49 100//49
f 129//49 100//49 127//49
f 1//49 3//49 113//49
f 113//49 3//49 5//49
f 113//49 5//49 111//49
f 111//49 5//49 7//49
f 111//49 7//49 9//49
f 111//49 9//49 109//49
f 109//49 9//49 11//49
f 109//49 11//49 13//49
f 13//49 15//49 109//49
f 109//49 15//49 107//49
f 107//49 15//49 17//49
f 107//49 17//49 105//49
f 105//49 17//49 101//49
f 105//49 101//49 103//49
f 121//49 37//49 119//49
f 119//49 37//49 39//49
f 119//49 39//49 117//49
f 117//49 39//49 41//49
f 117//49 41//49 43//49
f 43//49 45//49 117//49
f 117//49 45//49 115//49
f 115//49 45//49 47//49
f 115//49 47//49 1//49
f 115//49 1//49 113//49
f 50//50 30//50 52//50
f 52//50 30//50 28//50
f 52//50 28//50 54//50
f 54//50 28//50 26//50
f 54//50 26//50 56//50
f 56//50 26//50 24//50
f 56//50 24//50 58//50
f 58//50 24//50 22//50
f 58//50 22//50 60//50
f 60//50 22//50 20//50
f 60//50 20//50 62//50
f 62//50 20//50 18//50
f 62//50 18//50 125//50
f 125//50 18//50 102//50
f 102//50 18//50 106//50
f 102//50 106//50 104//50
f 30//50 50//50 32//50
f 32//50 50//50 96//50
f 32//50 96//50 34//50
f 34//50 96//50 94//50
f 34//50 94//50 36//50
f 36//50 94//50 92//50
f 36//50 92//50 38//50
f 38//50 92//50 90//50
f 38//50 90//50 97//50
f 97//50 90//50 98//50
f 98//50 90//50 130//50
f 98//50 130//50 128//50
f 130//50 90//50 132//50
f 132//50 90//50 88//50
f 132//50 88//50 134//50
f 134//50 88//50 86//50
f 134//50 86//50 84//50
f 84//50 82//50 134//50
f 134//50 82//50 136//50
f 136//50 82//50 80//50
f 136//50 80//50 78//50
f 136//50 78//50 138//50
f 138//50 78//50 76//50
f 138//50 76//50 74//50
f 138//50 74//50 140//50
f 140//50 74//50 72//50
f 140//50 72//50 70//50
f 140//50 70//50 142//50
f 142//50 70//50 68//50
f 142//50 68//50 66//50
f 66//50 64//50 142//50
f 142//50 64//50 144//50
f 144//50 64//50 62//50
f 144//50 62//50 146//50
f 146//50 62//50 125//50
f 146//50 125//50 148//50
f 6//50 4//50 114//50
f 114//50 4//50 2//50
f 114//50 2//50 116//50
f 116//50 2//50 48//50
f 116//50 48//50 46//50
f 116//50 46//50 118//50
f 118//50 46//50 44//50
f 118//50 44//50 42//50
f 42//50 40//50 118//50
f 118//50 40//50 120//50
f 120//50 40//50 38//50
f 120//50 38//50 122//50
f 122//50 38//50 97//50
f 122//50 97//50 124//50
f 106//50 18//50 108//50
f 108//50 18//50 16//50
f 108//50 16//50 110//50
f 110//50 16//50 14//50
f 110//50 14//50 12//50
f 12//50 10//50 110//50
f 110//50 10//50 112//50
f 112//50 10//50 8//50
f 112//50 8//50 6//50
f 112//50 6//50 114//50
