# Blender v2.79 (sub 0) OBJ File: ''
# www.blender.org
mtllib _L1r.mtl
o MeshBody6
v -0.005000 0.001449 -0.132762
v 0.005000 0.001449 -0.132762
v -0.005000 -0.000492 -0.132499
v 0.005000 -0.000492 -0.132499
v -0.005000 -0.002433 -0.132748
v 0.005000 -0.002433 -0.132748
v -0.005000 -0.004245 -0.133490
v 0.005000 -0.004245 -0.133490
v -0.005000 -0.005803 -0.134676
v 0.005000 -0.005803 -0.134676
v -0.005000 -0.007001 -0.136225
v 0.005000 -0.007001 -0.136225
v -0.005000 -0.007757 -0.138032
v 0.005000 -0.007757 -0.138032
v -0.005000 -0.008019 -0.139972
v 0.005000 -0.008019 -0.139972
v -0.005000 -0.007770 -0.141913
v 0.005000 -0.007770 -0.141913
v -0.005000 -0.007028 -0.143725
v 0.005000 -0.007028 -0.143725
v -0.005000 -0.005842 -0.145283
v 0.005000 -0.005842 -0.145283
v -0.005000 -0.004293 -0.146481
v 0.005000 -0.004293 -0.146481
v -0.005000 -0.002488 -0.147236
v 0.005000 -0.002488 -0.147236
v -0.005000 -0.000547 -0.147499
v 0.005000 -0.000547 -0.147499
v -0.005000 0.001395 -0.147250
v 0.005000 0.001395 -0.147250
v -0.005000 0.003207 -0.146508
v 0.005000 0.003207 -0.146508
v -0.005000 0.004765 -0.145322
v 0.005000 0.004765 -0.145322
v -0.005000 0.005963 -0.143773
v 0.005000 0.005963 -0.143773
v -0.005000 0.006717 -0.141967
v 0.005000 0.006717 -0.141967
v -0.005000 0.006981 -0.140027
v 0.005000 0.006981 -0.140027
v -0.005000 0.006732 -0.138085
v 0.005000 0.006732 -0.138085
v -0.005000 0.005990 -0.136273
v 0.005000 0.005990 -0.136273
v -0.005000 0.004804 -0.134715
v 0.005000 0.004804 -0.134715
v -0.005000 0.003254 -0.133518
v 0.005000 0.003254 -0.133518
v -0.005000 0.002487 0.147236
v 0.005000 0.002487 0.147236
v -0.005000 0.000547 0.147499
v 0.005000 0.000547 0.147499
v -0.005000 -0.001395 0.147251
v 0.005000 -0.001395 0.147251
v -0.005000 -0.003206 0.146508
v 0.005000 -0.003206 0.146508
v -0.005000 -0.004764 0.145322
v 0.005000 -0.004764 0.145322
v -0.005000 -0.005962 0.143773
v 0.005000 -0.005962 0.143773
v -0.005000 -0.006718 0.141967
v 0.005000 -0.006718 0.141967
v -0.005000 -0.006981 0.140027
v 0.005000 -0.006981 0.140027
v -0.005000 -0.006732 0.138084
v 0.005000 -0.006732 0.138084
v -0.005000 -0.005990 0.136273
v 0.005000 -0.005990 0.136273
v -0.005000 -0.004804 0.134715
v 0.005000 -0.004804 0.134715
v -0.005000 -0.003255 0.133518
v 0.005000 -0.003255 0.133518
v -0.005000 -0.001449 0.132762
v 0.005000 -0.001449 0.132762
v -0.005000 0.000492 0.132499
v 0.005000 0.000492 0.132499
v -0.005000 0.002434 0.132748
v 0.005000 0.002434 0.132748
v -0.005000 0.004245 0.133490
v 0.005000 0.004245 0.133490
v -0.005000 0.005803 0.134676
v 0.005000 0.005803 0.134676
v -0.005000 0.007001 0.136225
v 0.005000 0.007001 0.136225
v -0.005000 0.007756 0.138031
v 0.005000 0.007756 0.138031
v -0.005000 0.008019 0.139971
v 0.005000 0.008019 0.139971
v -0.005000 0.007771 0.141913
v 0.005000 0.007771 0.141913
v -0.005000 0.007029 0.143725
v 0.005000 0.007029 0.143725
v -0.005000 0.005843 0.145282
v 0.005000 0.005843 0.145282
v -0.005000 0.004293 0.146480
v 0.005000 0.004293 0.146480
v 0.005000 0.015519 0.139943
v 0.005000 0.014480 -0.140054
v -0.005000 0.015519 0.139943
v -0.005000 0.014480 -0.140054
v -0.005000 -0.014480 0.140055
v 0.005000 -0.014480 0.140055
v -0.005000 -0.013955 0.143935
v 0.005000 -0.013955 0.143935
v -0.005000 -0.012443 0.147547
v 0.005000 -0.012443 0.147547
v -0.005000 -0.010048 0.150645
v 0.005000 -0.010048 0.150645
v -0.005000 -0.006932 0.153017
v 0.005000 -0.006932 0.153017
v -0.005000 -0.003309 0.154502
v 0.005000 -0.003309 0.154502
v -0.005000 0.000575 0.154999
v 0.005000 0.000575 0.154999
v -0.005000 0.004456 0.154473
v 0.005000 0.004456 0.154473
v -0.005000 0.008067 0.152962
v 0.005000 0.008067 0.152962
v -0.005000 0.011165 0.150566
v 0.005000 0.011165 0.150566
v -0.005000 0.013538 0.147450
v 0.005000 0.013538 0.147450
v -0.005000 0.015023 0.143827
v 0.005000 0.015023 0.143827
v 0.005000 -0.015519 -0.139944
v -0.005000 -0.015519 -0.139944
v -0.005000 0.013955 -0.143935
v 0.005000 0.013955 -0.143935
v -0.005000 0.012443 -0.147547
v 0.005000 0.012443 -0.147547
v -0.005000 0.010048 -0.150645
v 0.005000 0.010048 -0.150645
v -0.005000 0.006933 -0.153017
v 0.005000 0.006933 -0.153017
v -0.005000 0.003310 -0.154502
v 0.005000 0.003310 -0.154502
v -0.005000 -0.000575 -0.154999
v 0.005000 -0.000575 -0.154999
v -0.005000 -0.004455 -0.154474
v 0.005000 -0.004455 -0.154474
v -0.005000 -0.008067 -0.152961
v 0.005000 -0.008067 -0.152961
v -0.005000 -0.011165 -0.150566
v 0.005000 -0.011165 -0.150566
v -0.005000 -0.013537 -0.147451
v 0.005000 -0.013537 -0.147451
v -0.005000 -0.015022 -0.143828
v 0.005000 -0.015022 -0.143828
vn 0.0000 -0.1347 -0.9909
vn 0.0000 0.1273 -0.9919
vn 0.0000 0.3790 -0.9254
vn 0.0000 0.6057 -0.7957
vn 0.0000 0.7910 -0.6118
vn 0.0000 0.9226 -0.3859
vn 0.0000 0.9910 -0.1342
vn 0.0000 0.9919 0.1272
vn 0.0000 0.9254 0.3790
vn 0.0000 0.7957 0.6057
vn 0.0000 0.6118 0.7910
vn 0.0000 0.3859 0.9226
vn 0.0000 0.1344 0.9909
vn 0.0000 -0.1273 0.9919
vn 0.0000 -0.3790 0.9254
vn 0.0000 -0.6057 0.7957
vn 0.0000 -0.7910 0.6118
vn 0.0000 -0.9227 0.3855
vn 0.0000 -0.9909 0.1346
vn 0.0000 -0.9919 -0.1272
vn 0.0000 -0.9254 -0.3790
vn 0.0000 -0.7957 -0.6057
vn 0.0000 -0.6115 -0.7913
vn 0.0000 -0.3859 -0.9226
vn 0.0000 -0.1342 -0.9910
vn 0.0000 0.1268 -0.9919
vn 0.0000 0.3795 -0.9252
vn 0.0000 0.9224 -0.3862
vn 0.0000 0.9919 0.1269
vn 0.0000 0.9252 0.3795
vn 0.0000 0.6116 0.7912
vn 0.0000 0.3862 0.9224
vn 0.0000 0.1340 0.9910
vn 0.0000 -0.1267 0.9919
vn 0.0000 -0.6061 0.7954
vn 0.0000 -0.9226 0.3858
vn 0.0000 -0.9910 0.1342
vn 0.0000 -0.9919 -0.1268
vn 0.0000 -0.6114 -0.7913
vn 0.0000 -0.3862 -0.9224
vn 0.0000 1.0000 -0.0037
vn 0.0000 -0.9224 0.3862
vn 0.0000 -0.7912 0.6115
vn 0.0000 -0.3793 0.9253
vn 0.0000 -0.1270 0.9919
vn 0.0000 0.1343 0.9909
vn 0.0000 0.3860 0.9225
vn 0.0000 0.7955 0.6059
vn 0.0000 0.9253 0.3792
vn 0.0000 0.9919 0.1268
vn 0.0000 -1.0000 0.0037
vn 0.0000 0.9910 -0.1341
vn 0.0000 0.7911 -0.6117
vn 0.0000 0.6059 -0.7955
vn 0.0000 0.3792 -0.9253
vn 0.0000 -0.6117 -0.7911
vn 0.0000 -0.7956 -0.6059
vn 0.0000 -0.9253 -0.3792
vn -1.0000 0.0000 0.0000
vn 1.0000 0.0000 0.0000
usemtl Paint_-_Enamel_Glossy_(Red)
s off
f 1//1 2//1 3//1
f 3//1 2//1 4//1
f 3//2 4//2 5//2
f 5//2 4//2 6//2
f 5//3 6//3 7//3
f 7//3 6//3 8//3
f 7//4 8//4 9//4
f 9//4 8//4 10//4
f 9//5 10//5 11//5
f 11//5 10//5 12//5
f 11//6 12//6 13//6
f 13//6 12//6 14//6
f 13//7 14//7 15//7
f 15//7 14//7 16//7
f 15//8 16//8 17//8
f 17//8 16//8 18//8
f 17//9 18//9 19//9
f 19//9 18//9 20//9
f 19//10 20//10 21//10
f 21//10 20//10 22//10
f 21//11 22//11 23//11
f 23//11 22//11 24//11
f 23//12 24//12 25//12
f 25//12 24//12 26//12
f 25//13 26//13 27//13
f 27//13 26//13 28//13
f 27//14 28//14 29//14
f 29//14 28//14 30//14
f 29//15 30//15 31//15
f 31//15 30//15 32//15
f 31//16 32//16 33//16
f 33//16 32//16 34//16
f 33//17 34//17 35//17
f 35//17 34//17 36//17
f 35//18 36//18 37//18
f 37//18 36//18 38//18
f 37//19 38//19 39//19
f 39//19 38//19 40//19
f 39//20 40//20 41//20
f 41//20 40//20 42//20
f 41//21 42//21 43//21
f 43//21 42//21 44//21
f 43//22 44//22 45//22
f 45//22 44//22 46//22
f 45//23 46//23 47//23
f 47//23 46//23 48//23
f 47//24 48//24 1//24
f 1//24 48//24 2//24
f 49//25 50//25 51//25
f 51//25 50//25 52//25
f 51//26 52//26 53//26
f 53//26 52//26 54//26
f 53//27 54//27 55//27
f 55//27 54//27 56//27
f 55//4 56//4 57//4
f 57//4 56//4 58//4
f 57//5 58//5 59//5
f 59//5 58//5 60//5
f 59//28 60//28 61//28
f 61//28 60//28 62//28
f 61//7 62//7 63//7
f 63//7 62//7 64//7
f 63//29 64//29 65//29
f 65//29 64//29 66//29
f 65//30 66//30 67//30
f 67//30 66//30 68//30
f 67//10 68//10 69//10
f 69//10 68//10 70//10
f 69//31 70//31 71//31
f 71//31 70//31 72//31
f 71//32 72//32 73//32
f 73//32 72//32 74//32
f 73//33 74//33 75//33
f 75//33 74//33 76//33
f 75//34 76//34 77//34
f 77//34 76//34 78//34
f 77//15 78//15 79//15
f 79//15 78//15 80//15
f 79//35 80//35 81//35
f 81//35 80//35 82//35
f 81//17 82//17 83//17
f 83//17 82//17 84//17
f 83//36 84//36 85//36
f 85//36 84//36 86//36
f 85//37 86//37 87//37
f 87//37 86//37 88//37
f 87//38 88//38 89//38
f 89//38 88//38 90//38
f 89//21 90//21 91//21
f 91//21 90//21 92//21
f 91//22 92//22 93//22
f 93//22 92//22 94//22
f 93//39 94//39 95//39
f 95//39 94//39 96//39
f 95//40 96//40 49//40
f 49//40 96//40 50//40
f 97//41 98//41 99//41
f 99//41 98//41 100//41
f 101//37 102//37 103//37
f 103//37 102//37 104//37
f 103//42 104//42 105//42
f 105//42 104//42 106//42
f 105//43 106//43 107//43
f 107//43 106//43 108//43
f 107//16 108//16 109//16
f 109//16 108//16 110//16
f 109//44 110//44 111//44
f 111//44 110//44 112//44
f 111//45 112//45 113//45
f 113//45 112//45 114//45
f 113//46 114//46 115//46
f 115//46 114//46 116//46
f 115//47 116//47 117//47
f 117//47 116//47 118//47
f 117//11 118//11 119//11
f 119//11 118//11 120//11
f 119//48 120//48 121//48
f 121//48 120//48 122//48
f 121//49 122//49 123//49
f 123//49 122//49 124//49
f 123//50 124//50 99//50
f 99//50 124//50 97//50
f 125//51 102//51 126//51
f 126//51 102//51 101//51
f 100//52 98//52 127//52
f 127//52 98//52 128//52
f 127//28 128//28 129//28
f 129//28 128//28 130//28
f 129//53 130//53 131//53
f 131//53 130//53 132//53
f 131//54 132//54 133//54
f 133//54 132//54 134//54
f 133//55 134//55 135//55
f 135//55 134//55 136//55
f 135//26 136//26 137//26
f 137//26 136//26 138//26
f 137//25 138//25 139//25
f 139//25 138//25 140//25
f 139//40 140//40 141//40
f 141//40 140//40 142//40
f 141//56 142//56 143//56
f 143//56 142//56 144//56
f 143//57 144//57 145//57
f 145//57 144//57 146//57
f 145//58 146//58 147//58
f 147//58 146//58 148//58
f 147//38 148//38 126//38
f 126//38 148//38 125//38
f 49//59 51//59 113//59
f 113//59 51//59 53//59
f 113//59 53//59 111//59
f 111//59 53//59 55//59
f 111//59 55//59 57//59
f 111//59 57//59 109//59
f 109//59 57//59 59//59
f 109//59 59//59 61//59
f 61//59 63//59 109//59
f 109//59 63//59 107//59
f 107//59 63//59 65//59
f 107//59 65//59 105//59
f 105//59 65//59 101//59
f 105//59 101//59 103//59
f 67//59 11//59 65//59
f 65//59 11//59 13//59
f 65//59 13//59 101//59
f 101//59 13//59 126//59
f 126//59 13//59 145//59
f 126//59 145//59 147//59
f 11//59 67//59 9//59
f 9//59 67//59 69//59
f 9//59 69//59 7//59
f 7//59 69//59 71//59
f 7//59 71//59 5//59
f 5//59 71//59 73//59
f 5//59 73//59 3//59
f 3//59 73//59 75//59
f 3//59 75//59 1//59
f 1//59 75//59 77//59
f 1//59 77//59 47//59
f 47//59 77//59 79//59
f 47//59 79//59 45//59
f 45//59 79//59 81//59
f 45//59 81//59 43//59
f 43//59 81//59 83//59
f 43//59 83//59 41//59
f 41//59 83//59 85//59
f 41//59 85//59 100//59
f 100//59 85//59 99//59
f 99//59 85//59 121//59
f 99//59 121//59 123//59
f 121//59 85//59 119//59
f 119//59 85//59 87//59
f 119//59 87//59 117//59
f 117//59 87//59 89//59
f 117//59 89//59 91//59
f 91//59 93//59 117//59
f 117//59 93//59 115//59
f 115//59 93//59 95//59
f 115//59 95//59 49//59
f 115//59 49//59 113//59
f 145//59 13//59 143//59
f 143//59 13//59 15//59
f 143//59 15//59 141//59
f 141//59 15//59 17//59
f 141//59 17//59 19//59
f 19//59 21//59 141//59
f 141//59 21//59 139//59
f 139//59 21//59 23//59
f 139//59 23//59 25//59
f 139//59 25//59 137//59
f 137//59 25//59 27//59
f 137//59 27//59 29//59
f 137//59 29//59 135//59
f 135//59 29//59 31//59
f 135//59 31//59 33//59
f 135//59 33//59 133//59
f 133//59 33//59 35//59
f 133//59 35//59 37//59
f 37//59 39//59 133//59
f 133//59 39//59 131//59
f 131//59 39//59 41//59
f 131//59 41//59 129//59
f 129//59 41//59 100//59
f 129//59 100//59 127//59
f 54//60 52//60 114//60
f 114//60 52//60 50//60
f 114//60 50//60 116//60
f 116//60 50//60 96//60
f 116//60 96//60 94//60
f 116//60 94//60 118//60
f 118//60 94//60 92//60
f 118//60 92//60 90//60
f 90//60 88//60 118//60
f 118//60 88//60 120//60
f 120//60 88//60 86//60
f 120//60 86//60 122//60
f 122//60 86//60 97//60
f 122//60 97//60 124//60
f 84//60 44//60 86//60
f 86//60 44//60 42//60
f 86//60 42//60 97//60
f 97//60 42//60 98//60
f 98//60 42//60 130//60
f 98//60 130//60 128//60
f 44//60 84//60 46//60
f 46//60 84//60 82//60
f 46//60 82//60 48//60
f 48//60 82//60 80//60
f 48//60 80//60 2//60
f 2//60 80//60 78//60
f 2//60 78//60 4//60
f 4//60 78//60 76//60
f 4//60 76//60 6//60
f 6//60 76//60 74//60
f 6//60 74//60 8//60
f 8//60 74//60 72//60
f 8//60 72//60 10//60
f 10//60 72//60 70//60
f 10//60 70//60 12//60
f 12//60 70//60 68//60
f 12//60 68//60 14//60
f 14//60 68//60 66//60
f 14//60 66//60 125//60
f 125//60 66//60 102//60
f 102//60 66//60 106//60
f 102//60 106//60 104//60
f 106//60 66//60 108//60
f 108//60 66//60 64//60
f 108//60 64//60 110//60
f 110//60 64//60 62//60
f 110//60 62//60 60//60
f 60//60 58//60 110//60
f 110//60 58//60 112//60
f 112//60 58//60 56//60
f 112//60 56//60 54//60
f 112//60 54//60 114//60
f 130//60 42//60 132//60
f 132//60 42//60 40//60
f 132//60 40//60 134//60
f 134//60 40//60 38//60
f 134//60 38//60 36//60
f 36//60 34//60 134//60
f 134//60 34//60 136//60
f 136//60 34//60 32//60
f 136//60 32//60 30//60
f 136//60 30//60 138//60
f 138//60 30//60 28//60
f 138//60 28//60 26//60
f 138//60 26//60 140//60
f 140//60 26//60 24//60
f 140//60 24//60 22//60
f 140//60 22//60 142//60
f 142//60 22//60 20//60
f 142//60 20//60 18//60
f 18//60 16//60 142//60
f 142//60 16//60 144//60
f 144//60 16//60 14//60
f 144//60 14//60 146//60
f 146//60 14//60 125//60
f 146//60 125//60 148//60
