# Blender v2.79 (sub 0) OBJ File: ''
# www.blender.org
mtllib ground1.mtl
o MeshBody2.002
v 0.002501 0.104213 -0.012267
v 0.002501 0.107500 -0.012700
v -0.002499 0.107500 -0.012700
v 0.002501 0.110787 -0.012267
v -0.002499 0.110787 -0.012267
v 0.002501 0.113850 -0.010999
v -0.002499 0.113850 -0.010999
v 0.002501 0.116480 -0.008980
v -0.002499 0.116480 -0.008980
v 0.002501 0.118499 -0.006350
v -0.002499 0.118499 -0.006350
v 0.002501 0.119767 -0.003287
v -0.002499 0.119767 -0.003287
v -0.002499 0.120200 0.000000
v 0.002501 0.120200 0.000000
v -0.002499 0.119767 0.003287
v 0.002501 0.119767 0.003287
v -0.002499 0.118499 0.006350
v 0.002501 0.118499 0.006350
v -0.002499 0.116480 0.008980
v 0.002501 0.116480 0.008980
v -0.002499 0.113850 0.010999
v 0.002501 0.113850 0.010999
v -0.002499 0.110787 0.012267
v 0.002501 0.110787 0.012267
v -0.002499 0.107500 0.012700
v 0.002501 0.107500 0.012700
v -0.002499 0.104213 0.012267
v 0.002501 0.104213 0.012267
v -0.002499 0.101150 0.010999
v 0.002501 0.101150 0.010999
v -0.002499 0.098520 0.008980
v 0.002501 0.098520 0.008980
v -0.002499 0.096502 0.006350
v 0.002501 0.096502 0.006350
v -0.002499 0.095233 0.003287
v 0.002501 0.095233 0.003287
v -0.002499 0.094800 0.000000
v 0.002501 0.094800 0.000000
v -0.002499 0.095233 -0.003287
v 0.002501 0.095233 -0.003287
v 0.002501 0.096502 -0.006350
v -0.002499 0.096502 -0.006350
v 0.002501 0.098520 -0.008980
v -0.002499 0.098520 -0.008980
v 0.002501 0.101150 -0.010999
v -0.002499 0.101150 -0.010999
v -0.002499 0.104213 -0.012267
v 0.002501 -0.110787 -0.012267
v 0.002501 -0.107500 -0.012700
v -0.002499 -0.107500 -0.012700
v 0.002501 -0.104213 -0.012267
v -0.002499 -0.104213 -0.012267
v 0.002501 -0.101150 -0.010999
v -0.002499 -0.101150 -0.010999
v 0.002501 -0.098520 -0.008980
v -0.002499 -0.098520 -0.008980
v 0.002501 -0.096501 -0.006350
v -0.002499 -0.096501 -0.006350
v 0.002501 -0.095233 -0.003287
v -0.002499 -0.095233 -0.003287
v -0.002499 -0.094800 -0.000000
v 0.002501 -0.094800 -0.000000
v -0.002499 -0.095233 0.003287
v 0.002501 -0.095233 0.003287
v -0.002499 -0.096501 0.006350
v 0.002501 -0.096501 0.006350
v -0.002499 -0.098520 0.008980
v 0.002501 -0.098520 0.008980
v -0.002499 -0.101150 0.010999
v 0.002501 -0.101150 0.010999
v -0.002499 -0.104213 0.012267
v 0.002501 -0.104213 0.012267
v -0.002499 -0.107500 0.012700
v 0.002501 -0.107500 0.012700
v -0.002499 -0.110787 0.012267
v 0.002501 -0.110787 0.012267
v -0.002499 -0.113850 0.010999
v 0.002501 -0.113850 0.010999
v -0.002499 -0.116480 0.008980
v 0.002501 -0.116480 0.008980
v -0.002499 -0.118498 0.006350
v 0.002501 -0.118498 0.006350
v -0.002499 -0.119767 0.003287
v 0.002501 -0.119767 0.003287
v -0.002499 -0.120200 -0.000000
v 0.002501 -0.120200 -0.000000
v -0.002499 -0.119767 -0.003287
v 0.002501 -0.119767 -0.003287
v 0.002501 -0.118498 -0.006350
v -0.002499 -0.118498 -0.006350
v 0.002501 -0.116480 -0.008980
v -0.002499 -0.116480 -0.008980
v 0.002501 -0.113850 -0.010999
v -0.002499 -0.113850 -0.010999
v -0.002499 -0.110787 -0.012267
v -0.002499 0.135632 -0.274800
v -0.002499 0.135632 0.274800
v 0.002501 0.135632 -0.274800
v 0.002501 0.135632 0.274800
v -0.002499 -0.135632 0.274800
v 0.002501 -0.135632 0.274800
v -0.002499 -0.135632 -0.274800
v 0.002501 -0.135632 -0.274800
vn 0.0000 0.1306 0.9914
vn 0.0000 -0.1306 0.9914
vn 0.0000 -0.3825 0.9240
vn 0.0000 -0.6089 0.7932
vn 0.0000 -0.7932 0.6089
vn 0.0000 -0.9240 0.3825
vn 0.0000 -0.9914 0.1306
vn 0.0000 -0.9914 -0.1306
vn 0.0000 -0.9240 -0.3825
vn 0.0000 -0.7932 -0.6089
vn 0.0000 -0.6089 -0.7932
vn 0.0000 -0.3825 -0.9240
vn 0.0000 -0.1306 -0.9914
vn 0.0000 0.1306 -0.9914
vn 0.0000 0.3825 -0.9240
vn 0.0000 0.6089 -0.7932
vn 0.0000 0.7934 -0.6088
vn 0.0000 0.9239 -0.3827
vn 0.0000 0.9914 -0.1306
vn 0.0000 0.9914 0.1306
vn 0.0000 0.9239 0.3827
vn 0.0000 0.7934 0.6088
vn 0.0000 0.6089 0.7932
vn 0.0000 0.3825 0.9240
vn 0.0000 0.7934 -0.6087
vn 0.0000 0.9238 -0.3828
vn 0.0000 0.9238 0.3828
vn 0.0000 0.7934 0.6087
vn 0.0000 1.0000 0.0000
vn 0.0000 -0.0000 1.0000
vn 0.0000 -1.0000 -0.0000
vn 0.0000 0.0000 -1.0000
vn 1.0000 0.0000 0.0000
vn 1.0000 0.0005 -0.0000
vn -1.0000 0.0000 0.0000
usemtl Steel_-_Satin.002
s 1
f 1//1 2//1 3//1
f 3//2 2//2 4//2
f 3//2 4//2 5//2
f 5//3 4//3 6//3
f 5//3 6//3 7//3
f 7//4 6//4 8//4
f 7//4 8//4 9//4
f 9//5 8//5 10//5
f 9//5 10//5 11//5
f 11//6 10//6 12//6
f 11//6 12//6 13//6
f 13//7 12//7 14//7
f 14//7 12//7 15//7
f 14//8 15//8 16//8
f 16//8 15//8 17//8
f 16//9 17//9 18//9
f 18//9 17//9 19//9
f 18//10 19//10 20//10
f 20//10 19//10 21//10
f 20//11 21//11 22//11
f 22//11 21//11 23//11
f 22//12 23//12 24//12
f 24//12 23//12 25//12
f 24//13 25//13 26//13
f 26//13 25//13 27//13
f 26//14 27//14 28//14
f 28//14 27//14 29//14
f 28//15 29//15 30//15
f 30//15 29//15 31//15
f 30//16 31//16 32//16
f 32//16 31//16 33//16
f 32//17 33//17 34//17
f 34//17 33//17 35//17
f 34//18 35//18 36//18
f 36//18 35//18 37//18
f 36//19 37//19 38//19
f 38//19 37//19 39//19
f 38//20 39//20 40//20
f 40//20 39//20 41//20
f 40//21 41//21 42//21
f 40//21 42//21 43//21
f 43//22 42//22 44//22
f 43//22 44//22 45//22
f 45//23 44//23 46//23
f 45//23 46//23 47//23
f 47//24 46//24 1//24
f 47//24 1//24 48//24
f 48//1 1//1 3//1
f 49//1 50//1 51//1
f 51//2 50//2 52//2
f 51//2 52//2 53//2
f 53//3 52//3 54//3
f 53//3 54//3 55//3
f 55//4 54//4 56//4
f 55//4 56//4 57//4
f 57//5 56//5 58//5
f 57//5 58//5 59//5
f 59//6 58//6 60//6
f 59//6 60//6 61//6
f 61//7 60//7 62//7
f 62//7 60//7 63//7
f 62//8 63//8 64//8
f 64//8 63//8 65//8
f 64//9 65//9 66//9
f 66//9 65//9 67//9
f 66//10 67//10 68//10
f 68//10 67//10 69//10
f 68//11 69//11 70//11
f 70//11 69//11 71//11
f 70//12 71//12 72//12
f 72//12 71//12 73//12
f 72//13 73//13 74//13
f 74//13 73//13 75//13
f 74//14 75//14 76//14
f 76//14 75//14 77//14
f 76//15 77//15 78//15
f 78//15 77//15 79//15
f 78//16 79//16 80//16
f 80//16 79//16 81//16
f 80//25 81//25 82//25
f 82//25 81//25 83//25
f 82//26 83//26 84//26
f 84//26 83//26 85//26
f 84//19 85//19 86//19
f 86//19 85//19 87//19
f 86//20 87//20 88//20
f 88//20 87//20 89//20
f 88//27 89//27 90//27
f 88//27 90//27 91//27
f 91//28 90//28 92//28
f 91//28 92//28 93//28
f 93//23 92//23 94//23
f 93//23 94//23 95//23
f 95//24 94//24 49//24
f 95//24 49//24 96//24
f 96//1 49//1 51//1
f 97//29 98//29 99//29
f 99//29 98//29 100//29
f 98//30 101//30 100//30
f 100//30 101//30 102//30
f 101//31 103//31 102//31
f 102//31 103//31 104//31
f 103//32 97//32 104//32
f 104//32 97//32 99//32
f 4//33 2//33 99//33
f 99//33 2//33 1//33
f 99//33 1//33 46//33
f 46//33 44//33 99//33
f 99//33 44//33 42//33
f 99//33 42//33 104//33
f 104//33 42//33 58//33
f 104//33 58//33 56//33
f 58//33 42//33 60//33
f 60//33 42//33 41//33
f 60//33 41//33 39//33
f 37//33 65//33 39//33
f 39//33 65//33 63//33
f 39//33 63//33 60//33
f 37//33 35//33 65//33
f 65//33 35//33 67//33
f 67//33 35//33 102//33
f 67//33 102//33 69//33
f 69//33 102//33 71//33
f 71//33 102//33 73//33
f 73//33 102//33 75//33
f 75//33 102//33 77//33
f 77//33 102//33 79//33
f 79//33 102//33 81//33
f 81//33 102//33 83//33
f 83//33 102//33 85//33
f 85//33 102//33 87//33
f 87//33 102//33 104//33
f 87//33 104//33 89//33
f 89//33 104//33 90//33
f 90//33 104//33 92//33
f 92//33 104//33 94//33
f 94//33 104//33 49//33
f 49//33 104//33 50//33
f 50//33 104//33 52//33
f 52//33 104//33 54//33
f 54//33 104//33 56//33
f 102//33 35//33 100//33
f 100//33 35//33 33//33
f 100//33 33//33 31//33
f 31//33 29//33 100//33
f 100//33 29//33 27//33
f 100//33 27//33 25//33
f 25//33 23//33 100//33
f 100//33 23//33 21//33
f 100//33 21//33 19//33
f 19//33 17//34 100//33
f 100//33 17//34 15//33
f 100//33 15//33 99//33
f 99//33 15//33 12//33
f 99//33 12//33 10//33
f 10//33 8//33 99//33
f 99//33 8//33 6//33
f 99//33 6//33 4//33
f 48//35 3//35 97//35
f 97//35 3//35 5//35
f 97//35 5//35 7//35
f 7//35 9//35 97//35
f 97//35 9//35 11//35
f 97//35 11//35 13//35
f 13//35 14//35 97//35
f 97//35 14//35 98//35
f 98//35 14//35 16//35
f 98//35 16//35 18//35
f 18//35 20//35 98//35
f 98//35 20//35 22//35
f 98//35 22//35 24//35
f 24//35 26//35 98//35
f 98//35 26//35 28//35
f 98//35 28//35 30//35
f 30//35 32//35 98//35
f 98//35 32//35 34//35
f 98//35 34//35 101//35
f 101//35 34//35 66//35
f 101//35 66//35 68//35
f 66//35 34//35 64//35
f 64//35 34//35 36//35
f 64//35 36//35 38//35
f 40//35 61//35 38//35
f 38//35 61//35 62//35
f 38//35 62//35 64//35
f 40//35 43//35 61//35
f 61//35 43//35 59//35
f 59//35 43//35 103//35
f 59//35 103//35 57//35
f 57//35 103//35 55//35
f 55//35 103//35 53//35
f 53//35 103//35 51//35
f 51//35 103//35 96//35
f 96//35 103//35 95//35
f 95//35 103//35 93//35
f 93//35 103//35 91//35
f 91//35 103//35 88//35
f 88//35 103//35 86//35
f 86//35 103//35 101//35
f 86//35 101//35 84//35
f 84//35 101//35 82//35
f 82//35 101//35 80//35
f 80//35 101//35 78//35
f 78//35 101//35 76//35
f 76//35 101//35 74//35
f 74//35 101//35 72//35
f 72//35 101//35 70//35
f 70//35 101//35 68//35
f 103//35 43//35 97//35
f 97//35 43//35 45//35
f 97//35 45//35 47//35
f 47//35 48//35 97//35
